<svg xmlns="http://www.w3.org/2000/svg" width="216.775" height="297.293" viewBox="0 0 216.775 297.293">
  <path id="btcBig" d="M137.341,297.293V257.8c46.811-2.564,78.1-14.456,82.276-58.913,3.27-35.675-13.428-51.593-39.924-58l.012-.025C195.673,132.63,205.83,118,203.477,93.66c-3.084-33.3-30.2-44.458-66.135-47.567V0H109.4V44.829c-7.259,0-14.691.186-22.136.372V.012H59.314V46.118c-10.269.31-22.235.161-56.064,0v30c22.062-.4,33.631-1.821,36.282,12.437V214.794c-1.685,11.322-10.665,9.687-30.658,9.328L3.25,257.6c50.949,0,56.064.186,56.064.186v39.49H87.26V258.347c7.618.186,15.063.186,22.136.186v38.76ZM87.817,78.114c15.781,0,65.144-4.942,65.144,28.181,0,31.649-49.363,28-65.144,28Zm0,146.169V162.446c18.866,0,76.652-5.3,76.652,30.918C164.469,228.308,106.683,224.283,87.817,224.283Z" transform="translate(-3.25)" fill="#fff" opacity="0.03"/>
</svg>
