<svg xmlns="http://www.w3.org/2000/svg" width="15.11" height="13.873" viewBox="0 0 15.11 13.873">
  <path id="external-link" d="M11.872,8.382v2.891a2.6,2.6,0,0,1-.713,1.838,2.264,2.264,0,0,1-1.716.763H2.428A2.263,2.263,0,0,1,.713,13.11,2.6,2.6,0,0,1,0,11.272V3.757A2.6,2.6,0,0,1,.713,1.919a2.266,2.266,0,0,1,1.716-.763H8.365a.254.254,0,0,1,.194.081.292.292,0,0,1,.076.208v.578a.292.292,0,0,1-.076.208.254.254,0,0,1-.194.081H2.428a1.257,1.257,0,0,0-.953.424,1.443,1.443,0,0,0-.4,1.021v7.515a1.443,1.443,0,0,0,.4,1.021,1.257,1.257,0,0,0,.953.424H9.444a1.257,1.257,0,0,0,.953-.424,1.443,1.443,0,0,0,.4-1.021V8.382a.292.292,0,0,1,.076-.208.254.254,0,0,1,.194-.081h.54a.254.254,0,0,1,.194.081A.292.292,0,0,1,11.872,8.382ZM15.11.578V5.2a.576.576,0,0,1-.16.406.5.5,0,0,1-.759,0l-1.484-1.59-5.5,5.889a.253.253,0,0,1-.388,0L5.86,8.879a.3.3,0,0,1,0-.415l5.5-5.889L9.873.985a.576.576,0,0,1-.16-.406.576.576,0,0,1,.16-.406A.5.5,0,0,1,10.253,0H14.57a.5.5,0,0,1,.379.172.576.576,0,0,1,.16.406Z" transform="translate(0 0)" fill="#d6707b"/>
</svg>
