<svg xmlns="http://www.w3.org/2000/svg" width="21.781" height="21.781" viewBox="0 0 21.781 21.781">
  <g id="lastUpdate" transform="translate(0 0)">
    <path id="Path_6" data-name="Path 6" d="M25.636,12.2l-2.011-2.011V6.75h1.556V9.539L26.737,11.1Z" transform="translate(-8.845 -3.638)" fill="#f9fbfa"/>
    <path id="Path_7" data-name="Path 7" d="M21.973,14.7A6.223,6.223,0,1,1,28.2,8.473,6.223,6.223,0,0,1,21.973,14.7Zm0-10.891a4.667,4.667,0,1,0,4.667,4.667,4.667,4.667,0,0,0-4.667-4.667Z" transform="translate(-6.415 -2.25)" fill="#f9fbfa"/>
    <path id="Path_8" data-name="Path 8" d="M7.408,14.7l5.445,4.667H24.031V17.808h-10.6L7.983,13.141H3.806V2.25H2.25V22.475a1.557,1.557,0,0,0,1.556,1.556H24.031V22.475H3.806V14.7Z" transform="translate(-2.25 -2.25)" fill="#70d692"/>
  </g>
</svg>
