<svg xmlns="http://www.w3.org/2000/svg" width="20.614" height="20.635" viewBox="0 0 20.614 20.635">
  <path id="openDay" d="M10.307,20.635A10.113,10.113,0,0,1,6.3,19.82,10.087,10.087,0,0,1,.815,14.334a10.252,10.252,0,0,1,0-8.012A10.3,10.3,0,0,1,3.009,3.031,10.489,10.489,0,0,1,6.3.825a10.134,10.134,0,0,1,8.012,0A10.435,10.435,0,0,1,17.6,3.03,10.337,10.337,0,0,1,19.8,6.321a10.252,10.252,0,0,1,0,8.012,10.085,10.085,0,0,1-5.486,5.486,10.14,10.14,0,0,1-4.006.815Zm0-18.038a7.693,7.693,0,0,0-7.731,7.721A7.59,7.59,0,0,0,3.613,14.2a7.67,7.67,0,0,0,2.818,2.818,7.764,7.764,0,0,0,7.751,0A7.67,7.67,0,0,0,17,14.2a7.59,7.59,0,0,0,1.037-3.886A7.693,7.693,0,0,0,10.307,2.6Zm3.865,4.509L11.536,10.67a1.264,1.264,0,0,1-1.994.684,1.29,1.29,0,0,1-.463-.644L5.154,5.818V5.174H5.8l4.529,3.644,3.2-2.355h.644v.644Z" transform="translate(0 0)" fill="#70d692"/>
</svg>
