<svg xmlns="http://www.w3.org/2000/svg" width="59.67" height="59.67" viewBox="0 0 59.67 59.67">
  <path id="plus" d="M63.126,26.326H43.238V6.443A1.493,1.493,0,0,0,41.747,4.95H27.818a1.493,1.493,0,0,0-1.491,1.493V26.328H6.444a1.538,1.538,0,0,0-1.493,1.493V41.749a1.491,1.491,0,0,0,1.493,1.491H26.329V63.127a1.493,1.493,0,0,0,1.493,1.493H41.747a1.493,1.493,0,0,0,1.493-1.493V43.239H63.128a1.491,1.491,0,0,0,1.493-1.493V27.817a1.493,1.493,0,0,0-1.493-1.493Z" transform="translate(-4.951 -4.95)" opacity="0.11"/>
</svg>
